<mxfile host="app.diagrams.net" modified="2023-10-09T12:31:50.289Z" agent="Mozilla/5.0 (Windows NT 10.0; Win64; x64) AppleWebKit/537.36 (KHTML, like Gecko) Chrome/117.0.0.0 Safari/537.36" version="22.0.4" etag="_8MwOmQ8T8aCFiatBdpX" type="github">
  <diagram name="Pagina-1" id="Ygy5yfQHm3s8WBBkOKHJ">
    <mxGraphModel>
      <root>
        <mxCell id="0" />
        <mxCell id="1" parent="0" />
      </root>
    </mxGraphModel>
  </diagram>
</mxfile>
